<svg xmlns="http://www.w3.org/2000/svg" xmlns:xlink="http://www.w3.org/1999/xlink" fill="none" version="1.1" width="192" height="192" viewBox="0 0 192 192"><defs><clipPath id="master_svg0_0_83"><rect x="0" y="0" width="192" height="192" rx="0"/></clipPath><mask id="master_svg1_0_86" style="mask-type:luminance" maskUnits="userSpaceOnUse" x="-48" y="0" width="240" height="240"><path d="M192,96C192,149.01933,149.01933,192,96,192C42.980663,192,0,149.01933,0,96C0,42.980663,42.980663,0,96,0C149.01933,0,192,42.980663,192,96L192,96Z" fill="#FFFFFF" fill-opacity="1"/></mask><filter id="master_svg2_0_92" filterUnits="objectBoundingBox" color-interpolation-filters="sRGB" x="0" y="0" width="1" height="1"><feFlood flood-opacity="0" result="BackgroundImageFix"/><feBlend mode="normal" in="SourceGraphic" in2="BackgroundImageFix" result="shape"/><feColorMatrix in="SourceAlpha" type="matrix" result="hardAlpha" values="0 0 0 0 0 0 0 0 0 0 0 0 0 0 0 0 0 0 127 0"/><feOffset dy="0" dx="0"/><feGaussianBlur stdDeviation="2"/><feComposite in2="hardAlpha" operator="arithmetic" k2="-1" k3="1"/><feColorMatrix type="matrix" values="0 0 0 0 0 0 0 0 0 0 0 0 0 0 0 0 0 0 0.25 0"/><feBlend mode="normal" in2="shape" result="effect1_innerShadow"/></filter><filter id="master_svg3_0_97" filterUnits="objectBoundingBox" color-interpolation-filters="sRGB" x="0" y="0" width="1" height="1"><feFlood flood-opacity="0" result="BackgroundImageFix"/><feBlend mode="normal" in="SourceGraphic" in2="BackgroundImageFix" result="shape"/><feColorMatrix in="SourceAlpha" type="matrix" result="hardAlpha" values="0 0 0 0 0 0 0 0 0 0 0 0 0 0 0 0 0 0 127 0"/><feOffset dy="0" dx="0"/><feGaussianBlur stdDeviation="2"/><feComposite in2="hardAlpha" operator="arithmetic" k2="-1" k3="1"/><feColorMatrix type="matrix" values="0 0 0 0 0 0 0 0 0 0 0 0 0 0 0 0 0 0 0.25 0"/><feBlend mode="normal" in2="shape" result="effect1_innerShadow"/></filter></defs><g clip-path="url(#master_svg0_0_83)" mask="url(#master_svg1_0_86)"><rect x="0" y="0" width="192" height="192" rx="0" fill="#CCCCCC" fill-opacity="1"/><path d="M192,96C192,149.01933,149.01933,192,96,192C42.980663,192,0,149.01933,0,96C0,42.980663,42.980663,0,96,0C149.01933,0,192,42.980663,192,96L192,96Z" fill="#FFFFFF" fill-opacity="1"/><path d="M192,96Q192,98.356667,191.88435,100.7105Q191.76872,103.06433,191.53773,105.40965Q191.30673,107.75497,190.96094,110.08612Q190.61514,112.41728,190.15536,114.72867Q189.6956,117.04005,189.12299,119.3261Q188.55035,121.61214,187.86627,123.86733Q187.18216,126.12251,186.38821,128.34142Q185.59427,130.56032,184.69241,132.73759Q183.79056,134.91487,182.78296,137.04529Q181.77536,139.17569,180.66443,141.25409Q179.5535,143.33249,178.34192,145.35387Q177.13036,147.37524,175.82106,149.33473Q174.51176,151.29424,173.10791,153.18712Q171.70404,155.08002,170.209,156.90175Q168.71396,158.72346,167.13132,160.46964Q165.54868,162.21582,163.88225,163.88223Q162.21584,165.54865,160.46967,167.1313Q158.7235,168.71394,156.90178,170.209Q155.08005,171.70404,153.18715,173.10789Q151.29425,174.51176,149.33475,175.82106Q147.37524,177.13036,145.35387,178.34193Q143.33249,179.5535,141.2541,180.66443Q139.17569,181.77536,137.04529,182.78296Q134.91489,183.79056,132.73761,184.69241Q130.56033,185.59427,128.34143,186.38821Q126.12252,187.18216,123.86734,187.86627Q121.61214,188.55035,119.3261,189.12299Q117.04005,189.6956,114.72867,190.15536Q112.41728,190.61514,110.08613,190.96092Q107.75497,191.30673,105.40965,191.53773Q103.06433,191.76872,100.71049,191.88437Q98.356667,192,96,192Q93.643326,192,91.28949,191.88435Q88.935669,191.76872,86.590347,191.53773Q84.245026,191.30673,81.913864,190.96094Q79.582703,190.61514,77.271317,190.15536Q74.95993,189.6956,72.673889,189.12299Q70.387856,188.55035,68.132668,187.86627Q65.877472,187.18216,63.658569,186.38821Q61.439663,185.59427,59.262386,184.69241Q57.085114,183.79056,54.954708,182.78296Q52.824306,181.77536,50.745911,180.66443Q48.667515,179.5535,46.646133,178.34192Q44.624752,177.13036,42.665253,175.82106Q40.705757,174.51176,38.812862,173.10791Q36.919968,171.70404,35.098244,170.209Q33.276512,168.71396,31.530338,167.13132Q29.784164,165.54868,28.117748,163.88225Q26.451332,162.21584,24.868692,160.46967Q23.286051,158.7235,21.790997,156.90178Q20.29594,155.08005,18.892076,153.18715Q17.488209,151.29425,16.178915,149.33475Q14.869621,147.37524,13.658051,145.35387Q12.446484,143.33249,11.335558,141.2541Q10.224632,139.17569,9.2170277,137.04529Q8.2094221,134.91489,7.3075643,132.73761Q6.4057064,130.56033,5.6117697,128.34143Q4.817832,126.12252,4.1337276,123.86734Q3.4496231,121.61214,2.8769994,119.3261Q2.3043759,117.04005,1.8446128,114.72867Q1.3848498,112.41728,1.039055,110.08613Q0.69326001,107.75497,0.46226621,105.40965Q0.23127238,103.06433,0.11563619,100.71049Q0,98.356667,0,96Q0,93.643326,0.11563619,91.28949Q0.23127238,88.935669,0.46226621,86.590347Q0.69326001,84.245026,1.0390549,81.913864Q1.3848498,79.582703,1.8446128,77.271317Q2.3043759,74.95993,2.8769994,72.673889Q3.4496231,70.387856,4.1337276,68.132668Q4.817832,65.877472,5.6117692,63.658569Q6.4057064,61.439663,7.3075643,59.262386Q8.2094221,57.085114,9.2170277,54.954708Q10.224633,52.824306,11.335559,50.745911Q12.446485,48.667515,13.658054,46.646133Q14.869623,44.624752,16.178917,42.665253Q17.488213,40.705757,18.892076,38.812862Q20.295942,36.919968,21.790997,35.098244Q23.286051,33.276512,24.86869,31.530338Q26.451332,29.784164,28.117748,28.117748Q29.784164,26.451332,31.530338,24.868692Q33.276512,23.286051,35.098244,21.790997Q36.919968,20.29594,38.812862,18.892076Q40.705757,17.488209,42.665253,16.178915Q44.624752,14.869621,46.646133,13.658051Q48.667519,12.446484,50.745918,11.335558Q52.82431,10.224632,54.954712,9.2170277Q57.085114,8.2094221,59.262386,7.3075643Q61.439663,6.4057064,63.658569,5.6117697Q65.877472,4.817832,68.132668,4.1337276Q70.387856,3.4496231,72.673897,2.8769994Q74.959938,2.3043759,77.271324,1.8446128Q79.582703,1.3848498,81.913864,1.039055Q84.245026,0.69326001,86.590347,0.46226621Q88.935669,0.23127238,91.28949,0.11563619Q93.643326,0,96,0Q98.356667,0,100.7105,0.11563619Q103.06433,0.23127238,105.40965,0.46226621Q107.75497,0.69326001,110.08612,1.0390549Q112.41728,1.3848498,114.72867,1.8446128Q117.04005,2.3043759,119.3261,2.8769994Q121.61214,3.4496231,123.86733,4.1337276Q126.12251,4.817832,128.34142,5.6117692Q130.56032,6.4057064,132.73759,7.3075643Q134.91487,8.2094221,137.04529,9.2170277Q139.17569,10.224633,141.25409,11.335559Q143.33249,12.446485,145.35387,13.658054Q147.37524,14.869623,149.33473,16.178917Q151.29424,17.488213,153.18712,18.892076Q155.08002,20.295942,156.90175,21.790997Q158.72346,23.286051,160.46964,24.86869Q162.21582,26.451332,163.88223,28.117748Q165.54865,29.784164,167.1313,31.530338Q168.71394,33.276512,170.209,35.098244Q171.70404,36.919968,173.10789,38.812862Q174.51176,40.705757,175.82106,42.665253Q177.13036,44.624752,178.34193,46.646133Q179.5535,48.667519,180.66443,50.745918Q181.77536,52.82431,182.78296,54.954712Q183.79056,57.085114,184.69241,59.262386Q185.59427,61.439663,186.38821,63.658569Q187.18216,65.877472,187.86627,68.132668Q188.55035,70.387856,189.12299,72.673897Q189.6956,74.959938,190.15536,77.271324Q190.61514,79.582703,190.96092,81.913864Q191.30673,84.245026,191.53773,86.590347Q191.76872,88.935669,191.88437,91.28949Q192,93.643326,192,96Z" fill="#FFC073" fill-opacity="1"/><path d="M144,144Q144,146.35666700000002,143.88435,148.7105Q143.76872,151.06432999999998,143.53773,153.40965Q143.30673,155.75497000000001,142.96094,158.08612Q142.61514,160.41728,142.15536,162.72867Q141.6956,165.04005,141.12299,167.3261Q140.55035,169.61214,139.86627,171.86732999999998Q139.18216,174.12251,138.38821,176.34142Q137.59427,178.56032,136.69241,180.73759Q135.79056,182.91487,134.78296,185.04529Q133.77536,187.17569,132.66443,189.25409Q131.5535,191.33249,130.34192,193.35387Q129.13036,195.37524,127.82105999999999,197.33473Q126.51176000000001,199.29424,125.10791,201.18712Q123.70403999999999,203.08002,122.209,204.90175Q120.71395999999999,206.72346,119.13131999999999,208.46964Q117.54867999999999,210.21582,115.88225,211.88223Q114.21583999999999,213.54865,112.46967000000001,215.1313Q110.7235,216.71394,108.90178,218.209Q107.08005,219.70404,105.18715,221.10789Q103.29425,222.51176,101.33475000000001,223.82106Q99.37523999999999,225.13036,97.35387,226.34193Q95.33249,227.5535,93.2541,228.66443Q91.17569,229.77536,89.04529,230.78296Q86.91489000000001,231.79056,84.73760999999999,232.69241Q82.56033,233.59427,80.34143,234.38821Q78.12252,235.18216,75.86734,235.86627Q73.61214,236.55035,71.3261,237.12299Q69.04005,237.6956,66.72867,238.15536Q64.41728,238.61514,62.08613,238.96092Q59.75497,239.30673,57.40965,239.53773Q55.06433,239.76872,52.71048999999999,239.88437Q50.356667,240,48,240Q45.643326,240,43.28949,239.88435Q40.935669000000004,239.76872,38.590346999999994,239.53773Q36.245025999999996,239.30673,33.913864000000004,238.96094Q31.582702999999995,238.61514,29.271316999999996,238.15536Q26.95993,237.6956,24.673889000000003,237.12299Q22.387856,236.55035,20.132667999999995,235.86627Q17.877471999999997,235.18216,15.658569,234.38821Q13.439663000000003,233.59427,11.262386,232.69241Q9.085113999999997,231.79056,6.954707999999997,230.78296Q4.824306,229.77536,2.7459109999999995,228.66443Q0.6675150000000016,227.5535,-1.353867000000001,226.34192Q-3.375247999999999,225.13036,-5.334747,223.82106Q-7.294243000000002,222.51176,-9.187137999999997,221.10791Q-11.080032000000003,219.70404,-12.901755999999999,218.209Q-14.723488000000003,216.71396,-16.469662,215.13132Q-18.215836,213.54868,-19.882252,211.88225Q-21.548668,210.21584,-23.131308,208.46967Q-24.713949,206.7235,-26.209003,204.90178Q-27.70406,203.08005,-29.107924,201.18715Q-30.511791,199.29425,-31.821085,197.33475Q-33.130379,195.37524,-34.341949,193.35387Q-35.553516,191.33249,-36.664442,189.2541Q-37.775368,187.17569,-38.7829723,185.04529Q-39.7905779,182.91489,-40.6924357,180.73761Q-41.5942936,178.56033,-42.388230300000004,176.34143Q-43.182168,174.12252,-43.8662724,171.86734Q-44.5503769,169.61214,-45.1230006,167.3261Q-45.6956241,165.04005,-46.1553872,162.72867Q-46.6151502,160.41728,-46.960945,158.08613Q-47.30673999,155.75497000000001,-47.53773379,153.40965Q-47.76872762,151.06432999999998,-47.88436381,148.71049Q-48,146.35666700000002,-48,144Q-48,141.643326,-47.88436381,139.28949Q-47.76872762,136.93566900000002,-47.53773379,134.590347Q-47.30673999,132.245026,-46.9609451,129.913864Q-46.6151502,127.582703,-46.1553872,125.271317Q-45.6956241,122.95993,-45.1230006,120.673889Q-44.5503769,118.387856,-43.8662724,116.132668Q-43.182168,113.877472,-42.3882308,111.658569Q-41.5942936,109.439663,-40.6924357,107.26238599999999Q-39.7905779,105.085114,-38.7829723,102.954708Q-37.775367,100.824306,-36.664441,98.745911Q-35.553515000000004,96.66751500000001,-34.341946,94.64613299999999Q-33.130376999999996,92.624752,-31.821083,90.665253Q-30.511787,88.705757,-29.107924,86.812862Q-27.704058,84.919968,-26.209003,83.098244Q-24.713949,81.276512,-23.13131,79.530338Q-21.548668,77.784164,-19.882252,76.117748Q-18.215836,74.45133200000001,-16.469662,72.868692Q-14.723488000000003,71.286051,-12.901755999999999,69.790997Q-11.080032000000003,68.29594,-9.187137999999997,66.892076Q-7.294243000000002,65.488209,-5.334747,64.178915Q-3.375247999999999,62.869621,-1.353867000000001,61.658051Q0.6675189999999986,60.446484,2.745918000000003,59.335558Q4.824309999999997,58.224632,6.954712000000001,57.2170277Q9.085113999999997,56.2094221,11.262386,55.3075643Q13.439663000000003,54.4057064,15.658569,53.611769699999996Q17.877471999999997,52.817832,20.132667999999995,52.1337276Q22.387856,51.4496231,24.673896999999997,50.8769994Q26.959937999999994,50.3043759,29.271324000000007,49.8446128Q31.582702999999995,49.3848498,33.913864000000004,49.039055Q36.245025999999996,48.69326001,38.590346999999994,48.46226621Q40.935669000000004,48.23127238,43.28949,48.11563619Q45.643326,48,48,48Q50.356667,48,52.710499999999996,48.11563619Q55.06433,48.23127238,57.40965,48.46226621Q59.75497,48.69326001,62.086119999999994,49.0390549Q64.41728,49.3848498,66.72867,49.8446128Q69.04005,50.3043759,71.3261,50.8769994Q73.61214,51.4496231,75.86733,52.1337276Q78.12251,52.817832,80.34142,53.6117692Q82.56031999999999,54.4057064,84.73759000000001,55.3075643Q86.91487000000001,56.2094221,89.04529,57.2170277Q91.17569,58.224633,93.25408999999999,59.335559Q95.33249,60.446484999999996,97.35387,61.658054Q99.37523999999999,62.869623000000004,101.33473000000001,64.178917Q103.29424,65.488213,105.18712,66.892076Q107.08001999999999,68.295942,108.90174999999999,69.790997Q110.72345999999999,71.286051,112.46964,72.86869Q114.21582000000001,74.45133200000001,115.88222999999999,76.117748Q117.54865000000001,77.784164,119.13130000000001,79.530338Q120.71394000000001,81.276512,122.209,83.098244Q123.70403999999999,84.919968,125.10789,86.812862Q126.51176000000001,88.705757,127.82105999999999,90.665253Q129.13036,92.624752,130.34193,94.64613299999999Q131.5535,96.667519,132.66443,98.745918Q133.77536,100.82431,134.78296,102.954712Q135.79056,105.085114,136.69241,107.26238599999999Q137.59427,109.439663,138.38821,111.658569Q139.18216,113.877472,139.86627,116.132668Q140.55035,118.387856,141.12299,120.673897Q141.6956,122.959938,142.15536,125.271324Q142.61514,127.582703,142.96092,129.913864Q143.30673,132.245026,143.53773,134.590347Q143.76872,136.93566900000002,143.88437,139.28949Q144,141.643326,144,144Z" fill="#FFA940" fill-opacity="1" filter="url(#master_svg2_0_92)"/><path d="M96,144Q96,145.178333,95.942177,146.355251Q95.884361,147.532166,95.768867,148.704826Q95.653366,149.877487,95.480469,151.04306Q95.307571,152.208641,95.077682,153.36433399999999Q94.847801,154.520027,94.561493,155.663052Q94.275177,156.806068,93.933136,157.93366600000002Q93.59108,159.06125600000001,93.194107,160.170708Q92.797134,161.280159,92.346207,162.368797Q91.895279,163.457436,91.391479,164.522644Q90.88768,165.58784500000002,90.332214,166.627045Q89.776749,167.666245,89.170959,168.67693300000002Q88.565178,169.687622,87.91053,170.66736600000002Q87.255882,171.647118,86.553955,172.593559Q85.85202,173.540009,85.1045,174.450874Q84.356979,175.36173200000002,83.565659,176.23481800000002Q82.774338,177.10791,81.941124,177.941116Q81.107918,178.77432299999998,80.234833,179.565651Q79.361748,180.35697199999998,78.45089,181.1045Q77.540024,181.85201999999998,76.593575,182.553947Q75.647125,183.25588199999999,74.667374,183.91053Q73.687622,184.565178,72.676933,185.17096700000002Q71.666245,185.776749,70.627052,186.332214Q69.587845,186.88768,68.522644,187.391479Q67.457443,187.89527900000002,66.368805,188.346207Q65.280167,188.797134,64.170715,189.194107Q63.06126,189.59108,61.93367,189.933136Q60.806072,190.27517699999999,59.663048,190.56149299999998Q58.520027,190.847801,57.364334,191.07768199999998Q56.208641,191.307571,55.043064,191.480461Q53.877487,191.653366,52.704826,191.768867Q51.532166,191.884361,50.355247,191.942184Q49.178333,192,48,192Q46.821663,192,45.644745,191.94217700000002Q44.467834,191.884361,43.295174,191.768867Q42.122513,191.653366,40.956932,191.480469Q39.791351,191.307571,38.635658,191.07768199999998Q37.479965,190.847801,36.336945,190.56149299999998Q35.193928,190.27517699999999,34.066334,189.933136Q32.938736,189.59108,31.829285,189.194107Q30.719831,188.797134,29.631193,188.346207Q28.542557,187.89527900000002,27.477354,187.391479Q26.412153,186.88768,25.372955,186.332214Q24.333757,185.776749,23.323067,185.17095899999998Q22.312376,184.565178,21.332626,183.91053Q20.352879,183.25588199999999,19.406431,182.553955Q18.459984,181.85201999999998,17.549122,181.1045Q16.638256,180.356979,15.765169,179.56565899999998Q14.892082,178.774338,14.058874,177.941124Q13.225666,177.10791799999998,12.434346,176.23483299999998Q11.643025,175.361748,10.895498,174.45089000000002Q10.14797,173.54002400000002,9.4460382,172.593575Q8.7441044,171.64712500000002,8.0894575,170.667374Q7.4348106,169.687622,6.8290257,168.67693300000002Q6.2232418,167.666245,5.667779,166.627052Q5.1123161,165.58784500000002,4.6085138,164.522644Q4.1047111,163.457443,3.6537821,162.368805Q3.2028532,161.280167,2.8058848,160.170715Q2.408916,159.06126,2.0668638,157.93367Q1.7248116,156.806072,1.4384997,155.663048Q1.1521879,154.520027,0.92230642,153.36433399999999Q0.69242489,152.208641,0.51952749,151.04306400000002Q0.34663001,149.877487,0.2311331,148.704826Q0.11563619,147.532166,0.057818096,146.355247Q0,145.178333,0,144Q0,142.821663,0.057818096,141.644745Q0.11563619,140.467834,0.2311331,139.295174Q0.34663001,138.122513,0.51952744,136.956932Q0.69242489,135.791351,0.92230642,134.635658Q1.1521879,133.479965,1.4384997,132.33694500000001Q1.7248116,131.193928,2.0668638,130.06633399999998Q2.408916,128.938736,2.8058846,127.829285Q3.2028532,126.719831,3.6537821,125.631193Q4.1047111,124.542557,4.6085138,123.47735399999999Q5.1123166,122.412153,5.6677794,121.372955Q6.2232423,120.33375699999999,6.8290272,119.32306700000001Q7.4348116,118.312376,8.0894585,117.332626Q8.7441063,116.352879,9.4460382,115.406431Q10.147971,114.45998399999999,10.895498,113.549122Q11.643025,112.638256,12.434345,111.765169Q13.225666,110.892082,14.058874,110.058874Q14.892082,109.225666,15.765169,108.434346Q16.638256,107.643025,17.549122,106.895498Q18.459984,106.14797,19.406431,105.4460382Q20.352879,104.7441044,21.332626,104.0894575Q22.312376,103.4348106,23.323067,102.8290257Q24.333759,102.2232418,25.372959,101.667779Q26.412155,101.1123161,27.477356,100.6085138Q28.542557,100.1047111,29.631193,99.6537821Q30.719831,99.20285319999999,31.829285,98.8058848Q32.938736,98.408916,34.066334,98.0668638Q35.193928,97.7248116,36.336948,97.4384997Q37.479969,97.1521879,38.635662,96.92230642Q39.791351,96.69242489,40.956932,96.51952749Q42.122513,96.34663001,43.295174,96.2311331Q44.467834,96.11563619,45.644745,96.057818096Q46.821663,96,48,96Q49.178333,96,50.355251,96.057818096Q51.532166,96.11563619,52.704826,96.2311331Q53.877487,96.34663001,55.04306,96.51952744Q56.208641,96.69242489,57.364334,96.92230642Q58.520027,97.1521879,59.663052,97.4384997Q60.806068,97.7248116,61.933666,98.0668638Q63.061256,98.408916,64.170708,98.8058846Q65.280159,99.20285319999999,66.368797,99.6537821Q67.457436,100.1047111,68.522644,100.6085138Q69.587845,101.1123166,70.627045,101.6677794Q71.666245,102.2232423,72.676933,102.8290272Q73.687622,103.4348116,74.667366,104.0894585Q75.647118,104.7441063,76.593559,105.4460382Q77.540009,106.147971,78.450874,106.895498Q79.361732,107.643025,80.234818,108.43434500000001Q81.10791,109.225666,81.941116,110.058874Q82.774323,110.892082,83.565651,111.765169Q84.356972,112.638256,85.1045,113.549122Q85.85202,114.45998399999999,86.553947,115.406431Q87.255882,116.352879,87.91053,117.332626Q88.565178,118.312376,89.170967,119.32306700000001Q89.776749,120.333759,90.332214,121.37295900000001Q90.88768,122.412155,91.391479,123.477356Q91.895279,124.542557,92.346207,125.631193Q92.797134,126.719831,93.194107,127.829285Q93.59108,128.938736,93.933136,130.06633399999998Q94.275177,131.193928,94.561493,132.336948Q94.847801,133.47996899999998,95.077682,134.635662Q95.307571,135.791351,95.480461,136.956932Q95.653366,138.122513,95.768867,139.295174Q95.884361,140.467834,95.942184,141.644745Q96,142.821663,96,144Z" fill="#FF9200" fill-opacity="1" filter="url(#master_svg3_0_97)"/></g></svg>